# xmcd
#
# Track frame offsets: 
#        150
#        30171
#        41716
#        55985
#        68857
#        93978
#
# Disc length: 1558 seconds
#
# Revision: 0
# Processed by: cddbd v1.5.2PL0 Copyright (c) Steve Scherf et al.
# Submitted via: ExactAudioCopy v1.0b3
#
DISCID=46061406
DTITLE=Disco Ladies - Three's Company
DYEAR=1977
DGENRE=Soul
TTITLE0=Better Than Walking Out
TTITLE1=Lovin' You Is So Easy
TTITLE2=Woman (Instrumental)
TTITLE3=Our Love Is Special
TTITLE4=I Second That Emotion
TTITLE5=Woman
EXTD=
EXTT0=
EXTT1=
EXTT2=
EXTT3=
EXTT4=
EXTT5=
PLAYORDER=
